# xmcd
#
# Track frame offsets: 
#        150
#        18933
#        39185
#        56585
#        74703
#        90739
#        109744
#        127580
#        145543
#        164954
#
# Disc length: 2411 seconds
#
# Revision: 0
# Processed by: cddbd v1.5.2PL0 Copyright (c) Steve Scherf et al.
# Submitted via: ExactAudioCopy v0.99pb4
#
DISCID=8209690a
DTITLE=ณัฐ กับ หนุ่ม - บ่อยากเป็นก้างขวางใจ
DYEAR=2008
DGENRE=Country
TTITLE0=บ่อยากเป็นก้างขวางใจ
TTITLE1=ย้อนฮักเจ้าหลายอ้ายบ่สู้
TTITLE2=ความคิดฮอด
TTITLE3=สาวเล่นเนตบ่าวเบ็ดกบ
TTITLE4=อย่าฝืน
TTITLE5=นักเลงผมยาว
TTITLE6=สมน้ำหน้าใจ
TTITLE7=สุดท้ายอ้ายกะบ่แม่น
TTITLE8=รักคนหลายใจ
TTITLE9=ไผ๋สอนน้อง
EXTD=
EXTT0=
EXTT1=
EXTT2=
EXTT3=
EXTT4=
EXTT5=
EXTT6=
EXTT7=
EXTT8=
EXTT9=
PLAYORDER=
